<svg width="118" height="80" viewBox="0 0 118 80" fill="none" xmlns="http://www.w3.org/2000/svg">
<g clip-path="url(#clip0_10706_2840)">
<path d="M32.8473 31.2612H32.7945C30.831 31.2612 28.5392 31.9059 28.3809 33.4533C27.9062 37.0698 27.5252 40.6277 27.1735 43.6287C27.1618 43.7225 27.15 43.8163 27.1266 43.91C26.5053 46.8583 25.2568 48.734 23.5453 48.734C22.3847 48.734 21.4821 47.8313 21.9334 44.6076C22.3203 41.8351 22.8654 39.1272 23.2229 36.6771C23.8325 32.2928 21.6696 28.5356 18.7683 28.5356C18.1645 28.5356 15.9372 29.7548 15.099 30.5578C14.0674 31.5484 10.3865 35.88 10.0876 36.2609C10.0524 36.9409 16.0603 33.8754 15.9489 34.4908C15.902 35.3524 15.7907 36.343 15.6324 36.9291C15.5093 38.7931 15.099 41.3721 14.6067 44.8244C13.2879 54.3023 17.3439 54.525 19.4716 54.525C20.8022 54.525 22.2616 54.2144 23.6391 53.259C24.7351 52.5028 26.2122 50.2755 27.1969 51.1782C27.8065 51.735 28.6974 51.9929 29.8228 52.0222C30.2742 52.0339 30.7431 52.0222 31.2296 51.9812C32.8063 51.8288 33.9785 50.381 33.791 48.8043C33.5389 46.7001 34.0079 45.5864 34.8519 39.6019C35.0629 38.0897 35.3208 36.4016 35.6373 34.608C35.9421 32.8613 34.6174 31.2612 32.8414 31.2553L32.8473 31.2612Z" fill="#231F20"/>
<path d="M37.8998 58.9855C37.8294 58.9855 37.7591 58.9855 37.6887 58.9855C35.9655 59.0265 34.6232 57.5084 34.9105 55.8086C35.2504 53.7865 35.52 51.946 35.7428 50.1524C36.4227 44.883 37.0147 33.9164 36.6864 32.1052C36.4579 30.8685 37.085 29.6083 38.2456 29.1218C39.2948 28.6822 40.2502 28.5767 40.9008 28.5767C43.8022 28.5767 44.9627 29.8017 44.3473 34.186C43.9956 36.6361 43.4798 46.9638 43.0929 49.7362C42.9874 50.5568 42.8819 51.3188 42.7823 52.0398C42.3485 55.1932 116.026 52.2098 117.497 52.6318C118.922 53.0421 92.4927 55.3456 88.2549 55.75C84.1929 56.1369 39.963 58.9855 37.8998 58.9855Z" fill="#231F20"/>
<path d="M46.8326 31.9175C46.9322 30.8214 49.183 30.3349 51.1524 30.3349C51.592 30.3349 52.0316 30.3642 52.4536 30.4228C53.4149 30.5576 54.0714 31.4661 53.9424 32.4215C52.9636 39.5314 52.7291 45.9496 52.2192 50.3281C52.0902 51.4241 49.8336 51.9106 47.87 51.9106C47.4832 51.9106 47.0963 51.8872 46.7271 51.8403C45.713 51.7172 45.0097 50.7794 45.1855 49.7712C46.3812 43.0131 46.7739 33.8927 46.8326 31.9175ZM54.4172 42.4621C63.983 30.0125 59.8331 29.0161 58.4381 28.6585C55.6891 27.961 10.8906 27.0173 8.52257 27.0642C8.3057 27.0642 5.08194 27.0056 0.0352917 26.8298C-1.43591 26.7829 54.6223 22 56.3749 22C61.9842 22 66.433 24.3211 66.433 28.4475C66.433 31.3841 64.4519 40.2699 61.6794 41.618C61.0347 41.9346 60.6537 42.6321 60.7123 43.3471C60.894 45.4104 61.5681 47.2801 63.1213 48.1242C64.3112 48.7748 64.2936 50.498 63.1389 51.2073C61.9842 51.9165 60.7299 52.233 59.4345 52.233C54.2179 52.233 53.8838 47.0398 54.4172 42.4621Z" fill="#231F20"/>
<path d="M67.5935 31.4252C67.6228 31.0677 67.6521 30.7277 67.6756 30.4171C67.8045 29.2565 70.1549 28.7759 72.2182 28.7759C72.265 28.7759 72.3178 28.7759 72.3647 28.7759C73.7831 28.7935 74.9027 29.913 75.0082 31.2728M75.014 31.267C75.0316 31.4604 75.0258 31.6597 74.9964 31.859C73.7069 41.0203 73.1442 45.7915 72.6109 50.2696C72.5171 51.3949 70.1315 51.9107 68.0683 51.9107H68.0331C66.3978 51.9107 65.1435 50.4337 65.4189 48.8218C66.5385 42.2512 67.2418 35.4989 67.5994 31.4194" fill="#231F20"/>
<path d="M91.0682 36.4366C91.7305 36.6241 92.3987 36.8234 93.0787 36.9407C93.2486 36.97 93.4245 36.9934 93.5945 37.0227C93.6472 37.0227 93.7 37.0286 93.7527 37.0286C94.0575 37.0462 94.3213 37.0872 94.585 37.1634C94.6437 37.1634 94.6964 37.1634 94.755 37.1751C94.925 37.1927 95.0891 37.2161 95.2591 37.2396C95.8745 36.29 96.1969 35.1353 96.1969 34.0158C96.1969 30.8917 93.4245 28.4417 88.3016 28.4417C79.8906 28.4417 75.0842 34.9536 75.0842 42.6262C75.0842 48.1066 78.1146 52.233 84.5914 52.233C86.2853 52.233 88.0379 51.852 89.6849 50.9787C91.8712 49.824 90.9744 46.5416 88.5009 46.5592C88.4775 46.5592 88.454 46.5592 88.4247 46.5592C85.1717 46.5592 82.8506 45.2052 82.8506 40.7564C82.8506 38.0836 84.0111 31.894 87.4928 31.894C88.8468 31.894 89.3274 32.826 89.3274 34.051C89.3274 34.602 89.2277 35.2115 89.0695 35.8211C89.7377 36.0087 90.3942 36.2431 91.0624 36.4307L91.0682 36.4366Z" fill="#231F20"/>
<path d="M107.334 42.8081C107.703 43.1832 107.908 43.658 107.92 44.1855C107.92 44.1972 107.92 44.2031 107.92 44.2148C107.937 44.3145 107.949 44.4141 107.931 44.5196C107.65 46.5301 107.328 48.564 106.958 50.5744C106.876 51.0316 107.14 51.4829 107.58 51.6177C108.26 51.8229 109.092 51.9167 109.913 51.9167C111.976 51.9167 114.361 51.4009 114.455 50.2755C115.024 45.5219 115.622 40.4284 117.087 30.1006C117.151 29.6317 116.864 29.1862 116.407 29.0632C115.715 28.8697 114.883 28.7759 114.062 28.7759C111.999 28.7759 109.649 29.2624 109.52 30.4171C109.373 32.2869 109.115 34.9421 108.775 37.9666C108.723 38.4296 108.336 38.7813 107.873 38.793C106.947 38.8106 106.032 38.8048 105.206 38.793C104.643 38.7813 104.221 38.2772 104.309 37.7204C104.508 36.5071 104.702 35.3172 104.878 34.1919C105.487 29.8075 104.333 28.5825 101.431 28.5825C100.54 28.5825 99.0925 28.8053 97.6037 29.7724C97.6681 31.056 97.5919 32.8086 97.3868 33.043C97.3633 33.3127 97.334 33.5412 97.2989 33.7112C97.252 35.6631 96.7948 38.5351 96.279 42.5326C95.9566 45.1644 95.5229 47.9016 95.0305 50.5744C94.9485 51.0316 95.2122 51.4829 95.6577 51.6177C96.3376 51.8229 97.1699 51.9167 97.9905 51.9167C100.054 51.9167 102.439 51.4009 102.533 50.2755C102.826 47.9251 103.178 45.475 103.629 42.1223L103.653 41.9172" fill="#231F20"/>
<path d="M106.173 41.9934C106.554 42.2748 107 42.4623 107.334 42.8081L106.173 41.9934Z" fill="#231F20"/>
<path d="M104.04 41.8759C104.274 41.6238 104.614 41.4597 105.059 41.4597C105.569 41.4597 105.939 41.6766 106.173 41.9931" fill="#231F20"/>
<path d="M103.969 41.9646C103.969 41.9646 104.017 41.9055 104.04 41.8818L103.969 41.9646Z" fill="#231F20"/>
<path d="M103.858 41.8235C103.893 41.8704 103.928 41.9173 103.969 41.9583L103.858 41.8235Z" fill="#231F20"/>
<path d="M103.852 41.8174C103.852 41.8174 103.852 41.8234 103.858 41.8295L103.852 41.8174Z" fill="#231F20"/>
<path d="M103.799 41.7532C103.799 41.7532 103.829 41.7946 103.847 41.8182L103.799 41.7532Z" fill="#231F20"/>
<path d="M103.694 41.6006C103.729 41.6533 103.764 41.7002 103.799 41.753L103.694 41.6006Z" fill="#231F20"/>
<path d="M95.9098 35.6455C95.9508 36.0206 95.0482 37.867 94.8665 38.1952C94.04 39.6781 93.026 41.0849 91.7424 42.1868C90.6932 43.0836 90.4177 43.0543 89.6616 43.7108C89.7378 43.5877 91.8361 40.7215 91.8596 40.6863C93.9404 36.9702 89.9898 38.0663 89.093 35.8213" fill="#231F20"/>
</g>
<defs>
<clipPath id="clip0_10706_2840">
<rect width="117.55" height="36.9912" fill="white" transform="translate(0 22)"/>
</clipPath>
</defs>
</svg>
